PathFileType	4	(x/y/z)	S05_BK_Cal_T01
DataRate	CameraRate	NumFrames	NumMarkers	Units	OrigDataRate	OrigDataStartFrame	OrigNumFrames
240	240	9	50	mm	240	301	2400
Frame#	Time	Sternum			R.Acromium			L.Acromium			Top.Head			R.ASIS			L.ASIS			R.PSIS			L.PSIS			R.Great.Tro			L.Great.Tro			R.Iliac.Crest			L.Iliac.Crest			V.Sacral			R.Thigh.Upper.Post			R.Thigh.Lower.Ant			R.Thigh.Lower.Post			R.Thigh.Upper.Ant			R.Knee.Lat			R.Knee.Med			R.Shank.Upper.Post			R.Shank.Lower.Ant			R.Shank.Lower.Post			R.Shank.Upper.Ant			R.Ankle.Lat			R.Ankle.Med			R.Heel.Upper			R.Heel.Med			R.Heel.Lat			R.Toe.Lat			R.Toe.Med			R.Toe.Tip			L.Thigh.Upper.Post			L.Thigh.Lower.Ant			L.Thigh.Lower.Post			L.Thigh.Upper.Ant			L.Knee.Lat			L.Shank.Upper.Post			L.Shank.Lower.Ant			L.Shank.Lower.Post			L.Shank.Upper.Ant			L.Ankle.Lat			L.Ankle.Med			L.Heel.Upper			L.Heel.Med			L.Heel.Lat			L.Toe.Lat			L.Toe.Med			L.Toe.Tip			Cervical.Spine			Back			
		X1	Y1	Z1	X2	Y2	Z2	X3	Y3	Z3	X4	Y4	Z4	X5	Y5	Z5	X6	Y6	Z6	X7	Y7	Z7	X8	Y8	Z8	X9	Y9	Z9	X10	Y10	Z10	X11	Y11	Z11	X12	Y12	Z12	X13	Y13	Z13	X14	Y14	Z14	X15	Y15	Z15	X16	Y16	Z16	X17	Y17	Z17	X18	Y18	Z18	X19	Y19	Z19	X20	Y20	Z20	X21	Y21	Z21	X22	Y22	Z22	X23	Y23	Z23	X24	Y24	Z24	X25	Y25	Z25	X26	Y26	Z26	X27	Y27	Z27	X28	Y28	Z28	X29	Y29	Z29	X30	Y30	Z30	X31	Y31	Z31	X32	Y32	Z32	X33	Y33	Z33	X34	Y34	Z34	X35	Y35	Z35	X36	Y36	Z36	X37	Y37	Z37	X38	Y38	Z38	X39	Y39	Z39	X40	Y40	Z40	X41	Y41	Z41	X42	Y42	Z42	X43	Y43	Z43	X44	Y44	Z44	X45	Y45	Z45	X46	Y46	Z46	X47	Y47	Z47	X48	Y48	Z48	X49	Y49	Z49	X50	Y50	Z50	

301	1.25	506.81	1242.5	326.09	420.98	1498.3	485.22	403.32	1507.4	145.62	423.78	1819.5	320.49	430.51	989.48	455.45	440.34	991	205.91	232.79	1014.8	362.14	237.72	1015.7	269.52	349.38	912.83	516.98	357.4	914.84	125.84	351.42	1078	490.12	360.14	1073.4	157.57	222.68	976.9	327.78	444.34	704.99	532.99	511.52	643.56	486.25	451.97	615.5	517.74	499.22	731.74	500.87	463.14	520.29	506.13	467.07	495.64	378.11	346.86	299.35	516.95	395.1	222.56	514.59	331.25	224.23	505.65	412.31	298.74	524.74	355.03	123.56	506.87	360.94	143.41	413.02	273.31	75.159	456.08	281.91	41.184	429.46	283.45	48.749	494.07	452.04	36.915	534.6	478.86	40.895	412.65	545.94	57.417	453.51	411.19	681.1	113.82	505.24	625.96	133.8	441.9	591	125.13	482.4	713.7	122.96	466.44	505.68	126.1	366.8	328.18	117.64	420.58	257.43	119.86	350.09	257.44	131.89	432.64	327.09	110.02	345.16	118.05	134.77	381.52	125.75	222.57	278.63	68.35	186.16	291.04	43.558	218.12	281.29	40.823	157.25	462.27	39.215	98.144	488.32	51.116	216.66	551.13	60.186	159.78	359.1	1551.9	323.74	246.83	1278.6	325.94
302	1.2542	506.79	1242.5	326.09	420.96	1498.2	485.22	403.31	1507.4	145.61	423.79	1819.5	320.49	430.51	989.48	455.45	440.33	991	205.9	232.79	1014.8	362.13	237.71	1015.7	269.51	349.37	912.83	516.98	357.39	914.84	125.84	351.41	1078	490.12	360.12	1073.4	157.57	222.67	976.89	327.78	444.33	704.99	532.98	511.52	643.56	486.24	451.97	615.5	517.74	499.22	731.75	500.86	463.13	520.29	506.12	467.06	495.64	378.11	346.86	299.35	516.95	395.1	222.56	514.59	331.25	224.23	505.64	412.31	298.74	524.74	355.03	123.56	506.87	360.94	143.41	413.02	273.31	75.159	456.08	281.91	41.185	429.46	283.44	48.751	494.07	452.04	36.914	534.6	478.87	40.893	412.65	545.94	57.415	453.51	411.18	681.1	113.81	505.23	625.96	133.79	441.89	591.01	125.12	482.39	713.7	122.96	466.44	505.68	126.1	366.8	328.18	117.64	420.58	257.43	119.86	350.09	257.44	131.89	432.63	327.09	110.02	345.16	118.05	134.77	381.52	125.75	222.57	278.63	68.349	186.16	291.04	43.557	218.12	281.29	40.823	157.25	462.27	39.215	98.144	488.32	51.116	216.66	551.13	60.186	159.78	359.09	1551.9	323.74	246.81	1278.6	325.94
303	1.2583	506.77	1242.5	326.09	420.94	1498.2	485.22	403.3	1507.4	145.61	423.81	1819.5	320.49	430.5	989.48	455.44	440.33	991.01	205.9	232.78	1014.8	362.13	237.7	1015.7	269.51	349.37	912.84	516.97	357.38	914.84	125.83	351.4	1078	490.11	360.11	1073.4	157.56	222.66	976.89	327.77	444.32	705	532.97	511.52	643.56	486.24	451.97	615.5	517.73	499.21	731.75	500.85	463.13	520.29	506.12	467.06	495.64	378.1	346.87	299.35	516.95	395.11	222.56	514.59	331.25	224.23	505.64	412.31	298.74	524.74	355.03	123.56	506.87	360.94	143.41	413.02	273.31	75.159	456.08	281.91	41.186	429.46	283.44	48.753	494.07	452.04	36.913	534.6	478.87	40.891	412.65	545.94	57.413	453.51	411.17	681.1	113.81	505.22	625.96	133.79	441.88	591.01	125.12	482.38	713.7	122.95	466.43	505.69	126.1	366.79	328.18	117.64	420.57	257.43	119.86	350.09	257.44	131.9	432.63	327.09	110.02	345.16	118.05	134.77	381.51	125.75	222.57	278.63	68.347	186.16	291.04	43.557	218.12	281.29	40.822	157.25	462.27	39.215	98.144	488.32	51.116	216.66	551.13	60.187	159.78	359.08	1551.9	323.73	246.8	1278.6	325.93
304	1.2625	506.76	1242.5	326.08	420.91	1498.2	485.21	403.29	1507.4	145.6	423.82	1819.5	320.49	430.5	989.49	455.43	440.32	991.01	205.89	232.77	1014.8	362.13	237.69	1015.7	269.51	349.37	912.84	516.97	357.38	914.85	125.83	351.39	1078	490.11	360.1	1073.4	157.56	222.66	976.89	327.77	444.32	705	532.97	511.52	643.56	486.23	451.96	615.51	517.73	499.21	731.75	500.85	463.12	520.29	506.11	467.06	495.65	378.1	346.87	299.35	516.95	395.11	222.56	514.59	331.25	224.23	505.64	412.31	298.74	524.74	355.03	123.56	506.86	360.94	143.41	413.02	273.32	75.158	456.08	281.91	41.187	429.46	283.44	48.755	494.06	452.04	36.912	534.59	478.87	40.889	412.65	545.94	57.411	453.51	411.16	681.11	113.81	505.21	625.96	133.79	441.87	591.01	125.12	482.37	713.7	122.95	466.42	505.69	126.1	366.78	328.18	117.64	420.57	257.43	119.86	350.08	257.43	131.9	432.63	327.09	110.02	345.16	118.04	134.77	381.51	125.75	222.57	278.63	68.346	186.16	291.04	43.556	218.12	281.29	40.822	157.25	462.27	39.215	98.144	488.31	51.116	216.66	551.13	60.188	159.78	359.07	1551.9	323.73	246.79	1278.6	325.92
305	1.2667	506.74	1242.5	326.08	420.89	1498.3	485.21	403.28	1507.4	145.6	423.83	1819.5	320.5	430.49	989.49	455.43	440.31	991.02	205.89	232.77	1014.8	362.13	237.69	1015.7	269.5	349.37	912.84	516.97	357.37	914.85	125.82	351.38	1078	490.1	360.09	1073.4	157.55	222.65	976.9	327.77	444.31	705.01	532.96	511.51	643.56	486.23	451.96	615.51	517.72	499.21	731.75	500.84	463.11	520.3	506.11	467.05	495.65	378.09	346.86	299.35	516.94	395.11	222.56	514.58	331.25	224.22	505.63	412.31	298.74	524.74	355.04	123.56	506.86	360.94	143.41	413.02	273.32	75.157	456.08	281.92	41.187	429.46	283.44	48.758	494.06	452.04	36.911	534.59	478.87	40.887	412.65	545.95	57.41	453.51	411.15	681.11	113.81	505.2	625.96	133.79	441.86	591.01	125.12	482.36	713.7	122.94	466.41	505.69	126.1	366.78	328.18	117.64	420.56	257.43	119.86	350.08	257.43	131.9	432.62	327.09	110.02	345.16	118.04	134.77	381.51	125.75	222.58	278.63	68.344	186.16	291.04	43.556	218.12	281.29	40.821	157.25	462.27	39.216	98.145	488.31	51.117	216.66	551.13	60.189	159.78	359.06	1551.9	323.73	246.77	1278.6	325.92
306	1.2708	506.73	1242.5	326.08	420.87	1498.3	485.21	403.27	1507.4	145.59	423.84	1819.5	320.5	430.49	989.5	455.42	440.31	991.02	205.88	232.76	1014.8	362.12	237.68	1015.7	269.5	349.36	912.85	516.97	357.36	914.86	125.82	351.37	1078	490.1	360.08	1073.4	157.55	222.65	976.9	327.76	444.3	705.01	532.95	511.51	643.56	486.22	451.95	615.51	517.71	499.2	731.76	500.83	463.1	520.3	506.11	467.05	495.65	378.09	346.86	299.34	516.94	395.11	222.56	514.58	331.25	224.22	505.63	412.31	298.74	524.73	355.04	123.56	506.86	360.94	143.41	413.02	273.32	75.155	456.08	281.92	41.187	429.46	283.43	48.761	494.06	452.04	36.91	534.59	478.87	40.884	412.65	545.95	57.408	453.51	411.13	681.12	113.81	505.18	625.96	133.78	441.84	591.02	125.11	482.35	713.71	122.94	466.39	505.69	126.1	366.77	328.18	117.65	420.55	257.43	119.86	350.07	257.43	131.9	432.62	327.09	110.03	345.16	118.04	134.77	381.5	125.75	222.58	278.63	68.343	186.16	291.03	43.555	218.12	281.29	40.821	157.25	462.27	39.216	98.145	488.31	51.117	216.66	551.13	60.19	159.78	359.04	1551.9	323.72	246.76	1278.6	325.91
307	1.275	506.72	1242.5	326.07	420.85	1498.3	485.2	403.25	1507.4	145.59	423.85	1819.5	320.5	430.48	989.5	455.42	440.3	991.03	205.87	232.76	1014.8	362.12	237.68	1015.7	269.5	349.36	912.86	516.96	357.35	914.86	125.81	351.37	1078	490.1	360.07	1073.4	157.54	222.64	976.9	327.76	444.29	705.02	532.94	511.5	643.56	486.21	451.94	615.52	517.7	499.19	731.76	500.82	463.09	520.31	506.1	467.04	495.66	378.08	346.85	299.34	516.93	395.1	222.56	514.58	331.25	224.22	505.63	412.3	298.74	524.73	355.04	123.56	506.86	360.94	143.41	413.02	273.33	75.153	456.08	281.92	41.187	429.46	283.42	48.765	494.06	452.04	36.909	534.59	478.87	40.882	412.65	545.95	57.407	453.51	411.12	681.12	113.8	505.17	625.96	133.78	441.83	591.02	125.11	482.34	713.71	122.94	466.38	505.69	126.1	366.76	328.18	117.65	420.55	257.43	119.86	350.06	257.43	131.9	432.61	327.08	110.03	345.16	118.04	134.77	381.5	125.75	222.58	278.63	68.341	186.16	291.03	43.554	218.12	281.29	40.82	157.24	462.27	39.216	98.145	488.31	51.118	216.66	551.13	60.192	159.78	359.03	1551.9	323.72	246.75	1278.6	325.9
308	1.2792	506.71	1242.5	326.07	420.83	1498.3	485.2	403.24	1507.4	145.59	423.86	1819.5	320.5	430.48	989.51	455.41	440.3	991.04	205.87	232.75	1014.8	362.12	237.67	1015.7	269.49	349.36	912.86	516.96	357.34	914.87	125.81	351.36	1078	490.09	360.06	1073.5	157.54	222.64	976.91	327.75	444.28	705.03	532.94	511.49	643.56	486.21	451.93	615.52	517.7	499.19	731.76	500.82	463.07	520.31	506.1	467.03	495.66	378.08	346.85	299.34	516.92	395.1	222.56	514.58	331.25	224.22	505.62	412.3	298.74	524.73	355.04	123.56	506.86	360.94	143.41	413.01	273.33	75.15	456.08	281.92	41.187	429.46	283.42	48.77	494.06	452.04	36.908	534.59	478.87	40.88	412.65	545.95	57.406	453.51	411.1	681.13	113.8	505.15	625.96	133.78	441.81	591.03	125.11	482.32	713.71	122.94	466.36	505.69	126.1	366.74	328.18	117.65	420.54	257.43	119.86	350.05	257.43	131.9	432.6	327.08	110.03	345.15	118.04	134.77	381.5	125.75	222.57	278.63	68.339	186.16	291.03	43.553	218.12	281.28	40.818	157.24	462.27	39.217	98.145	488.31	51.12	216.66	551.12	60.194	159.78	359.02	1551.9	323.72	246.73	1278.6	325.89
309	1.2833	506.7	1242.5	326.07	420.81	1498.3	485.19	403.23	1507.4	145.58	423.87	1819.5	320.51	430.47	989.52	455.41	440.29	991.05	205.86	232.75	1014.8	362.12	237.67	1015.7	269.49	349.36	912.87	516.96	357.34	914.88	125.8	351.36	1078.1	490.09	360.05	1073.5	157.53	222.63	976.92	327.75	444.27	705.03	532.93	511.48	643.56	486.2	451.92	615.53	517.69	499.18	731.77	500.81	463.06	520.32	506.09	467.02	495.66	378.07	346.84	299.35	516.92	395.1	222.56	514.57	331.24	224.22	505.61	412.29	298.75	524.73	355.04	123.56	506.85	360.94	143.41	413.01	273.34	75.146	456.08	281.92	41.186	429.46	283.4	48.776	494.05	452.04	36.907	534.59	478.87	40.878	412.65	545.95	57.405	453.51	411.09	681.14	113.8	505.13	625.97	133.78	441.79	591.03	125.11	482.31	713.72	122.93	466.35	505.69	126.1	366.73	328.17	117.65	420.53	257.43	119.86	350.04	257.43	131.91	432.6	327.08	110.03	345.15	118.04	134.77	381.5	125.75	222.57	278.63	68.337	186.16	291.03	43.552	218.12	281.28	40.816	157.24	462.27	39.217	98.145	488.31	51.122	216.66	551.12	60.197	159.78	359	1551.9	323.71	246.72	1278.6	325.88
